Coordinates
version=1
nRows=7
nColumns=40
inDegrees=yes

Units are S.I. units (second, meters, Newtons, ...)
If the header above contains a line with 'inDegrees', this indicates whether rotational values are in degrees (yes) or radians (no).

endheader
time	pelvis_tilt	pelvis_list	pelvis_rotation	pelvis_tx	pelvis_ty	pelvis_tz	hip_flexion_r	hip_adduction_r	hip_rotation_r	knee_angle_r	knee_angle_r_beta	ankle_angle_r	subtalar_angle_r	mtp_angle_r	hip_flexion_l	hip_adduction_l	hip_rotation_l	knee_angle_l	knee_angle_l_beta	ankle_angle_l	subtalar_angle_l	mtp_angle_l	lumbar_extension	lumbar_bending	lumbar_rotation	arm_flex_r	arm_add_r	arm_rot_r	elbow_flex_r	pro_sup_r	wrist_flex_r	wrist_dev_r	arm_flex_l	arm_add_l	arm_rot_l	elbow_flex_l	pro_sup_l	wrist_flex_l	wrist_dev_l
      0.00000000	     -1.37679829	      0.37345165	      2.57807398	     -0.23840116	      0.95943824	     -0.95196822	     -0.98908783	    -10.40242949	    -18.69240357	      1.93500319	      0.03377218	     -0.68942638	      0.00000000	      0.00000000	     -0.01415153	     -8.48052348	    -12.80561836	      2.87849473	      0.05023921	      0.51916639	      0.00000000	      0.00000000	     -0.52197905	     -0.61641379	      1.10977881	    -17.79872707	    -37.70600021	     35.45537387	     78.11598744	     87.06917003	      0.00000000	      0.00000000	     -5.18687721	    -38.02747049	     49.96062249	     72.22148368	     87.18500176	      0.00000000	      0.00000000
      0.00500000	     -1.36352254	      0.38583071	      2.52440680	     -0.23835667	      0.95943557	     -0.95191908	     -1.00446558	    -10.41869697	    -18.55501085	      1.91487297	      0.03342084	     -0.67730527	      0.00000000	      0.00000000	     -0.05553129	     -8.46768220	    -12.82297329	      2.85527130	      0.04983389	      0.52905362	      0.00000000	      0.00000000	     -0.53554304	     -0.63204634	      1.02630164	    -17.58335521	    -37.80011144	     35.77481028	     78.13601518	     87.01606137	      0.00000000	      0.00000000	     -5.35868263	    -38.02325815	     49.75160923	     72.25538184	     87.14790997	      0.00000000	      0.00000000
      0.01000000	     -1.32890080	      0.37146229	      2.44720972	     -0.23840711	      0.95946014	     -0.95189692	     -0.99814919	    -10.40556398	    -18.52999124	      1.95117196	      0.03405437	     -0.63630210	      0.00000000	      0.00000000	     -0.07719603	     -8.48492142	    -12.92748284	      2.92115671	      0.05098380	      0.61694026	      0.00000000	      0.00000000	     -0.58553593	     -0.61671873	      0.99956262	    -17.37912371	    -37.88907362	     36.03447729	     78.12036511	     87.11481060	      0.00000000	      0.00000000	     -5.45178860	    -37.99360816	     49.53409537	     72.39234754	     87.22866331	      0.00000000	      0.00000000
      0.01500000	     -1.29487831	      0.37325814	      2.49625015	     -0.23832860	      0.95950398	     -0.95197333	     -1.04750337	    -10.40502468	    -18.69116795	      1.95636375	      0.03414499	     -0.66045261	      0.00000000	      0.00000000	     -0.10208120	     -8.48706061	    -12.85364201	      2.93095449	      0.05115481	      0.59004582	      0.00000000	      0.00000000	     -0.61496392	     -0.62095271	      0.95029961	    -17.40658530	    -37.85489497	     35.97233650	     78.09305397	     87.07997457	      0.00000000	      0.00000000	     -5.37520049	    -38.03459145	     49.68096794	     72.37938951	     87.19055425	      0.00000000	      0.00000000
      0.02000000	     -1.26603516	      0.37590235	      2.43787761	     -0.23823499	      0.95952971	     -0.95190556	     -1.06884418	    -10.41251876	    -18.62335520	      1.96595325	      0.03431236	     -0.67390924	      0.00000000	      0.00000000	     -0.12873053	     -8.48661191	    -12.97201732	      2.97789378	      0.05197405	      0.63079362	      0.00000000	      0.00000000	     -0.64148788	     -0.63026155	      0.97764432	    -17.39821399	    -37.87517140	     35.98598419	     78.10638298	     87.16596958	      0.00000000	      0.00000000	     -5.37473748	    -38.05592786	     49.68823236	     72.41675473	     87.26264860	      0.00000000	      0.00000000
      0.02500000	     -1.27045886	      0.35443116	      2.43328083	     -0.23819034	      0.95953388	     -0.95186957	     -1.08231122	    -10.37905910	    -18.60734247	      1.91930709	      0.03349823	     -0.72713347	      0.00000000	      0.00000000	     -0.17052134	     -8.51072482	    -12.84578306	      2.90667689	      0.05073108	      0.62651678	      0.00000000	      0.00000000	     -0.63167991	     -0.61474329	      1.05375214	    -17.55374692	    -37.83111850	     35.83356702	     78.14071648	     87.05805014	      0.00000000	      0.00000000	     -5.20911457	    -38.07889273	     49.90738465	     72.39079888	     87.10363854	      0.00000000	      0.00000000
      0.03000000	     -1.23695014	      0.35218124	      2.39141317	     -0.23811860	      0.95956495	     -0.95181340	     -1.12027123	    -10.36880377	    -18.56610420	      1.90036914	      0.03316770	     -0.71366872	      0.00000000	      0.00000000	     -0.18751930	     -8.51594822	    -12.92925905	      2.95938949	      0.05165109	      0.62338276	      0.00000000	      0.00000000	     -0.66333955	     -0.61668302	      1.01597483	    -17.43985384	    -37.90392664	     36.16332284	     78.27968846	     87.12174162	      0.00000000	      0.00000000	     -5.27546448	    -38.10943592	     49.85792594	     72.43726624	     87.12692626	      0.00000000	      0.00000000
